<?xml version="1.0" encoding="utf-8"?>
<!-- Generator: Adobe Illustrator 21.1.0, SVG Export Plug-In . SVG Version: 6.00 Build 0)  -->
<svg version="1.1" id="Слой_1" xmlns="http://www.w3.org/2000/svg" xmlns:xlink="http://www.w3.org/1999/xlink" x="0px" y="0px"
	 viewBox="0 0 24.4 81.7" enable-background="new 0 0 24.4 81.7" xml:space="preserve">
<g>
	<g>
		<path d="M3.5,0.5l0,0.9l-2.4,0c-0.3,0-0.5,0.2-0.5,0.5l0,1.6c0,0.2,0.1,0.4,0.3,0.5l2.9,1.3l0,5l-0.4,0.8l-1.9,1.5
			c-0.1,0.1-0.2,0.2-0.2,0.4l0,7.1C1.2,20.1,1,20.3,1,20.5l-0.4,9.9l-0.2,0c-0.3,0-0.5,0.2-0.5,0.5l0,6.5c0,0.3,0.2,0.5,0.5,0.5
			l1.1,0l0,18.6c0,0.1,0.1,0.3,0.2,0.4l2.8,2.5L6,66.3l-0.9,2.1c0,0.1,0,0.2,0,0.3l2.6,12.5c0.1,0.3,0.3,0.4,0.6,0.4l10.4-1.8
			c0.2,0,0.3-0.1,0.4-0.3c0-0.1,0.1-0.1,0.1-0.2c0-0.1,0-0.2-0.1-0.2L9.9,60.5l-0.1-1.8l1.5-0.4l5.2,2c0.1,0.1,0.3,0,0.4,0
			c1.2-0.7,1.9-1.5,2.1-2.5c0.1-0.3,0.1-0.5,0.1-0.8c0-0.9-0.4-1.6-0.4-1.6c-0.1-0.1-0.2-0.2-0.4-0.2c-2.6-0.3-5.5-1.8-6.6-2.5
			l0.4-0.5c0.1-0.1,0.1-0.2,0.1-0.3l0-3.4c0-0.1-0.1-0.3-0.2-0.4l-0.5-0.4c0,0,0,0,0,0l-0.3-2.3c3.4-1.1,9.4-3.8,13-10.2
			c0-0.1,0.1-0.2,0.1-0.2c0-0.2-0.1-0.3-0.2-0.4l-4.5-2.9c-0.1-0.1-0.3-0.1-0.4-0.1s-0.2,0.1-0.3,0.2c0,0.1-3.5,5.8-10.4,7.3
			l-0.2-3.6l0.9-0.7c0.1-0.1,0.2-0.2,0.2-0.4c0-0.1,0-0.1,0-0.2L8,30.3l-0.8-9.8C7.2,20.2,7,20,6.7,20l-0.6,0l0-5.8
			c0.2,0,0.4-0.2,0.4-0.5l0-3.6c0-0.2-0.1-0.4-0.3-0.5l0-4.1c0-0.1,0-0.1,0-0.2l0-3.5c0-0.2-0.1-0.4-0.3-0.5l0-1C6,0.2,5.8,0,5.6,0
			L4,0C3.8,0,3.5,0.2,3.5,0.5z M5.3,5.5l0,4.2l-0.5,0l0-4.2L5.3,5.5z M2,21.1c0.1,0,0.1-0.1,0.2-0.1l1.1,0l0,9.3l-1.6,0L2,21.1z
			 M2.6,56.3l0-18.9c0-0.3-0.2-0.5-0.5-0.5l-1.1,0l0-5.5l2.6,0l0,3.6c0,0.3,0.2,0.5,0.5,0.5l1,0l0,23.1L2.6,56.3z M8.5,80.6
			L6.1,68.7l0.9-2.1c0-0.1,0-0.2,0-0.3l-0.9-4.7L9,61.1L17.8,79L8.5,80.6z M8.9,60.6L6,61.1l-0.3-1.6l0-24l1.6,0L8.9,60.6z
			 M17.9,56.1c0.2,0.5,0.5,2-1.4,3.2l-5.1-2c-0.1,0-0.2,0-0.3,0l-1.5,0.4l-0.3-4.3l1.4-0.1C11.5,53.8,14.8,55.7,17.9,56.1z
			 M11.3,48.7l0,3l-0.6,0.6l-1.3,0.1l-0.1-1.1l0.8,0c0.1,0,0.1,0,0.2-0.1l0.6-0.7c0,0,0.1-0.1,0.1-0.2c0-0.1,0-0.1-0.1-0.2
			c-0.1-0.1-0.3-0.1-0.4,0L10,50.9l-0.7,0l-0.1-2.4l1.7-0.2c0,0,0,0,0,0L11.3,48.7z M10.6,47.3l-1.5,0.2L9,46
			c0.3-0.1,0.8-0.2,1.4-0.3L10.6,47.3z M23.2,35.1c-0.2,0.4-0.5,0.8-0.7,1.1c-1.2-0.9-2.9-2.2-3.5-2.8c0.2-0.3,0.4-0.6,0.6-0.8
			L23.2,35.1z M18.6,33.9c0.5,0.4,1.5,1.2,3.6,2.8c-4.6,6.4-11.7,8-13.3,8.3l-0.3-4.9C13.7,39,17,35.8,18.6,33.9z M7,30.5
			c0,0,0,0.1,0,0.1l1.3,3.7L8,34.5c-0.1,0-0.1,0-0.2,0l-3.1,0l0-3.6c0-0.2-0.2-0.4-0.4-0.5l0-9.4l2,0L7,30.5z M4.3,20l0-5.8l0.9,0
			l0,5.8L4.3,20z M5.6,13.2l-1.9,0c-0.3,0-0.5,0.2-0.5,0.5l0,6.3l-0.9,0l0-6.8l1.8-1.4c0.1,0,0.1-0.1,0.1-0.2l0.4-0.8
			c0,0,0.1-0.1,0.1-0.1l0.8,0L5.6,13.2z M5.4,2.4l0,2.1l-0.9,0L1.6,3.2l0-0.8L5.4,2.4z M5.1,1l0,0.4l-0.5,0l0-0.4L5.1,1z"/>
		<circle cx="2" cy="35.9" r="0.4"/>
		<circle cx="2" cy="32.2" r="0.4"/>
		<path d="M7.8,62.6c-0.2,0.1-0.4,0.3-0.3,0.6l0.6,2.3c0.1,0.2,0.3,0.4,0.6,0.3C8.9,65.8,9,65.5,9,65.3L8.4,63
			C8.3,62.7,8.1,62.6,7.8,62.6z"/>
	</g>
</g>
</svg>
