<?xml version="1.0" encoding="utf-8"?>
<!-- Generator: Adobe Illustrator 21.1.0, SVG Export Plug-In . SVG Version: 6.00 Build 0)  -->
<svg version="1.1" id="arrow_right" xmlns="http://www.w3.org/2000/svg" xmlns:xlink="http://www.w3.org/1999/xlink" x="0px"
	 y="0px" viewBox="0 0 58.9 58.9" enable-background="new 0 0 58.9 58.9" xml:space="preserve">
<path d="M6.8,57.7l44.1-44.1l0,30.3c0,2.2,1.8,4,4,4c2.2,0,4-1.8,4-4l0-40l0,0c0-0.3,0-0.5-0.1-0.8c0-0.1-0.1-0.2-0.1-0.3
	c0-0.1-0.1-0.3-0.1-0.4c-0.1-0.1-0.1-0.3-0.2-0.4c-0.1-0.1-0.1-0.2-0.2-0.3c-0.1-0.2-0.3-0.4-0.5-0.6l0,0c0,0,0,0,0,0
	c-0.2-0.2-0.4-0.3-0.6-0.5c-0.1-0.1-0.2-0.1-0.3-0.2c-0.1-0.1-0.2-0.1-0.4-0.2c-0.1-0.1-0.3-0.1-0.4-0.1c-0.1,0-0.2-0.1-0.3-0.1
	C55.4,0,55.2,0,54.9,0l-40,0c-2.2,0-4,1.8-4,4c0,2.2,1.8,4,4,4l30.3,0L1.2,52.1c-1.6,1.6-1.6,4.1,0,5.7C2.7,59.3,5.3,59.3,6.8,57.7z
	"/>
</svg>
