<?xml version="1.0" encoding="utf-8"?>
<!-- Generator: Adobe Illustrator 19.2.1, SVG Export Plug-In . SVG Version: 6.00 Build 0)  -->
<svg version="1.1" id="Слой_1" xmlns="http://www.w3.org/2000/svg" xmlns:xlink="http://www.w3.org/1999/xlink" x="0px" y="0px"
	 viewBox="0 0 1792 1792" style="enable-background:new 0 0 1792 1792;" xml:space="preserve">
<path d="M1324.8,896.1c0-15.1-5-27.7-15-37.7l-75.8-76.3L932.2,478.7c-10-10-22.5-15.1-37.5-15.1c-15,0-27.5,5.1-37.5,15.1
	L781.3,555c-10,10-15,22.6-15,37.7s5,27.7,15,37.7l157.6,158.4H520.4c-14.4,0-26.9,5.3-37.5,16c-10.6,10.6-15.8,23.2-15.8,37.7
	v107.2c0,14.5,5.2,27.1,15.8,37.7c10.6,10.6,23,16,37.5,16h418.5l-157.6,158.4c-10.6,10.6-15.9,23.2-15.9,37.7
	c0,14.5,5.2,27.1,15.9,37.7l75.8,76.3c10,10,22.5,15.1,37.5,15.1s27.5-5.1,37.5-15.1l301.8-303.4l75.8-76.3
	C1319.7,923.7,1324.8,911.1,1324.8,896.1z M1792,896c0,162.6-40.1,312.5-120.2,449.8s-188.8,246-326.1,326.1S1058.6,1792,896,1792
	s-312.5-40.1-449.8-120.2s-246-188.8-326.1-326.1S0,1058.6,0,896s40.1-312.5,120.2-449.8s188.8-246,326.1-326.1S733.4,0,896,0
	s312.5,40.1,449.8,120.2s246,188.8,326.1,326.1C1751.9,583.5,1792,733.4,1792,896z"/>
</svg>
