<?xml version="1.0" encoding="UTF-8"?>
<svg width="20px" height="20px" viewBox="0 0 20 20" version="1.1" xmlns="http://www.w3.org/2000/svg" xmlns:xlink="http://www.w3.org/1999/xlink">
    <!-- Generator: Sketch 44.1 (41455) - http://www.bohemiancoding.com/sketch -->
    <title>link</title>
    <desc>Created with Sketch.</desc>
    <defs></defs>
    <g id="Page-1" stroke="none" stroke-width="1" fill="none" fill-rule="evenodd">
        <g id="link" fill-rule="nonzero" fill="#999999">
            <g id="Group">
                <g id="Vector">
                    <g>
                        <g id="path0_fill-link">
                            <path d="M5.45754,12.9157 C5.09807,12.9157 4.73861,12.7786 4.46418,12.5044 L1.66541,9.70538 C0.591574,8.63175 -1.58252e-09,7.20384 -1.58252e-09,5.68529 C-1.58252e-09,4.16674 0.591367,2.73883 1.66541,1.6652 C2.73904,0.591574 4.16674,-1.58252e-09 5.68529,-1.58252e-09 C7.20384,-1.58252e-09 8.63155,0.591574 9.70538,1.66541 L12.5039,4.46377 C13.0528,5.01241 13.0528,5.90184 12.5042,6.45048 C11.9557,6.99912 11.0663,6.99932 10.5177,6.45048 L7.71888,3.65191 C7.17563,3.10846 6.45359,2.80935 5.6855,2.80935 C4.9172,2.80935 4.19516,3.10846 3.65212,3.6517 C3.10867,4.19495 2.80956,4.91699 2.80956,5.68508 C2.80956,6.45338 3.10867,7.17543 3.65212,7.71867 L6.4511,10.5174 C6.99974,11.0661 6.99974,11.9555 6.4511,12.5042 C6.17647,12.7786 5.81701,12.9157 5.45754,12.9157 Z" id="path0_fill"></path>
                        </g>
                    </g>
                </g>
                <g transform="translate(7.000000, 7.000000)" id="Vector">
                    <g>
                        <g id="path1_fill-link" transform="translate(0.100000, 0.100000)">
                            <path d="M7.23047,12.9129 C5.77456,12.9129 4.31886,12.3589 3.21038,11.2506 L0.4114,8.45124 C-0.137237,7.90261 -0.13703,7.01317 0.4114,6.46474 C0.960244,5.9161 1.84947,5.91589 2.39811,6.46495 L5.19689,9.26414 C6.31801,10.3851 8.14272,10.3849 9.26427,9.26393 C10.3852,8.1428 10.3852,6.31809 9.26406,5.19675 L6.46508,2.39798 C5.91644,1.84934 5.91644,0.959907 6.46508,0.411478 C7.01371,-0.136952 7.90294,-0.137367 8.45179,0.411478 L11.2508,3.21025 C13.4671,5.427 13.4671,9.03369 11.2508,11.2506 C10.1425,12.3587 8.68638,12.9127 7.23047,12.9129 Z" id="path1_fill"></path>
                        </g>
                    </g>
                </g>
            </g>
            <g id="Group" transform="translate(4.000000, 4.000000)">
                <g id="Vector">
                    <g id="path2_fill-link" transform="translate(0.400000, 0.400000)">
                        <path d="M9.85779,11.2626 C9.49832,11.2626 9.13885,11.1255 8.86443,10.8513 L0.411478,2.39814 C-0.137159,1.8495 -0.137159,0.960063 0.411478,0.411633 C0.959907,-0.137211 1.84934,-0.137211 2.39798,0.411633 L10.8509,8.86459 C11.3996,9.41343 11.3996,10.3029 10.8509,10.8513 C10.5769,11.1255 10.2173,11.2626 9.85779,11.2626 Z" id="path2_fill"></path>
                    </g>
                </g>
            </g>
        </g>
    </g>
</svg>