<?xml version="1.0" encoding="utf-8"?>
<!-- Generator: Adobe Illustrator 19.2.1, SVG Export Plug-In . SVG Version: 6.00 Build 0)  -->
<svg version="1.1" id="Слой_1" xmlns="http://www.w3.org/2000/svg" xmlns:xlink="http://www.w3.org/1999/xlink" x="0px" y="0px"
	 viewBox="0 0 20 15" enable-background="new 0 0 20 15" xml:space="preserve">
<title>path0_fill</title>
<desc>Created with Sketch.</desc>
<g id="Page-1">
	<g id="mail">
		<path id="path0_fill" fill="#999999" d="M0,12.8V2.2c0,0,0-0.1,0-0.1C0.2,0.9,1.3,0,2.5,0c5,0,10,0,15.1,0c1.1,0,2.1,0.8,2.4,1.9
			c0,0.1,0,0.2,0.1,0.3v10.6c0,0,0,0.1,0,0.1c-0.2,1-0.9,1.8-1.9,2c-0.5,0.1-1,0.1-1.5,0.1c-4.7,0-9.4,0-14,0
			c-1.2,0-2.1-0.7-2.4-1.8C0.1,13.1,0,12.9,0,12.8z M6.8,7.3C6.5,7.6,6.2,7.9,5.9,8.2l-3.2,3.2c-0.2,0.2-0.3,0.4-0.2,0.7
			c0.1,0.5,0.7,0.6,1.1,0.2c1.3-1.3,2.6-2.6,4-4c0-0.1,0.1-0.1,0.1-0.2c0.1,0.1,0.2,0.2,0.3,0.2l1.6,1.4c0.3,0.3,0.6,0.3,0.9,0
			c0.6-0.5,1.1-1,1.7-1.5c0.1,0,0.1-0.1,0.2-0.1c0.5,0.5,1,1,1.5,1.5l2.6,2.7c0.2,0.2,0.4,0.3,0.6,0.2c0.5-0.1,0.6-0.7,0.3-1.1
			c-0.9-0.9-1.8-1.8-2.7-2.7c-0.5-0.5-0.9-0.9-1.4-1.4c0.1-0.1,0.1-0.1,0.2-0.2l1.9-1.8l2-1.8c0.2-0.2,0.3-0.4,0.2-0.6
			c0-0.1-0.1-0.2-0.2-0.3c-0.1-0.1-0.2-0.1-0.3-0.2c-0.3-0.1-0.5,0-0.6,0.2c-2.1,1.9-4.2,3.8-6.2,5.7c-0.1,0-0.1,0.1-0.2,0.1L7,5.8
			c-1.1-1-2.3-2.1-3.4-3.1C3.4,2.5,3.2,2.5,3,2.5c-0.1,0-0.2,0.1-0.3,0.2C2.6,2.8,2.5,2.9,2.5,3c-0.1,0.3,0,0.5,0.2,0.6
			c0.8,0.7,1.6,1.5,2.5,2.2L6.8,7.3z"/>
	</g>
</g>
</svg>
