<?xml version="1.0" encoding="utf-8"?>
<!-- Generator: Adobe Illustrator 21.1.0, SVG Export Plug-In . SVG Version: 6.00 Build 0)  -->
<svg version="1.1" id="Odnoklassniki" xmlns="http://www.w3.org/2000/svg" xmlns:xlink="http://www.w3.org/1999/xlink" x="0px"
	 y="0px" viewBox="0 0 18 30" enable-background="new 0 0 18 30" xml:space="preserve">
<path id="K" d="M16,15c-1,0-3,2-7,2s-6-2-7-2c-1.1,0-2,0.9-2,2c0,1,0.6,1.5,1,1.7C2.2,19.4,6,21,6,21l-4.3,5.4c0,0-0.8,0.9-0.8,1.6
	c0,1.1,0.9,2,2,2c1,0,1.5-0.7,1.5-0.7S9,24,9,24c0,0,4.5,5.3,4.5,5.3S14,30,15,30c1.1,0,2-0.9,2-2c0-0.6-0.8-1.6-0.8-1.6L12,21
	c0,0,3.8-1.6,5-2.3c0.4-0.3,1-0.7,1-1.7C18,15.9,17.1,15,16,15z"/>
<path id="O" d="M9,0C5.1,0,2,3.1,2,7s3.1,7,7,7c3.9,0,7-3.1,7-7S12.9,0,9,0z M9,10.5c-1.9,0-3.5-1.6-3.5-3.5c0-1.9,1.6-3.5,3.5-3.5
	c1.9,0,3.5,1.6,3.5,3.5C12.5,8.9,10.9,10.5,9,10.5z"/>
</svg>
