<svg width="35" height="35" viewBox="0 0 35 35" version="1.1" xmlns="http://www.w3.org/2000/svg" xmlns:xlink="http://www.w3.org/1999/xlink">
<title>/rubric</title>
<desc>Created using Figma</desc>
<g id="Canvas" transform="translate(8325 -10156)">
<g id="icon/rubric">
<g id="Vector">
<use xlink:href="#path0_fill" transform="translate(-8323.25 10185.2)"/>
</g>
<g id="Vector">
<use xlink:href="#path1_fill" transform="translate(-8296.42 10185.2)"/>
</g>
<g id="Vector">
<use xlink:href="#path2_fill" transform="translate(-8325 10178.2)"/>
</g>
<g id="Vector">
<use xlink:href="#path3_fill" transform="translate(-8320.92 10180.5)"/>
</g>
<g id="Vector">
<use xlink:href="#path4_fill" transform="translate(-8316.25 10180.5)"/>
</g>
<g id="Vector">
<use xlink:href="#path4_fill" transform="translate(-8311.58 10180.5)"/>
</g>
<g id="Vector">
<use xlink:href="#path4_fill" transform="translate(-8306.92 10180.5)"/>
</g>
<g id="Vector">
<use xlink:href="#path4_fill" transform="translate(-8302.25 10180.5)"/>
</g>
<g id="Vector">
<use xlink:href="#path4_fill" transform="translate(-8297.58 10180.5)"/>
</g>
<g id="Vector">
<use xlink:href="#path5_fill" transform="translate(-8323.83 10174.7)"/>
</g>
<g id="Vector">
<use xlink:href="#path6_fill" transform="translate(-8325 10189.8)"/>
</g>
<g id="Vector">
<use xlink:href="#path7_fill" transform="translate(-8297 10156)"/>
</g>
<g id="Vector">
<use xlink:href="#path8_fill" transform="translate(-8315.08 10156)"/>
</g>
<g id="Vector">
<use xlink:href="#path9_fill" transform="translate(-8314.5 10170)"/>
</g>
<g id="Vector">
<use xlink:href="#path10_fill" transform="translate(-8313.92 10159.5)"/>
</g>
<g id="Vector">
<use xlink:href="#path11_fill" transform="translate(-8312.75 10161.8)"/>
</g>
<g id="Vector">
<use xlink:href="#path12_fill" transform="translate(-8311.58 10164.8)"/>
</g>
<g id="Vector">
<use xlink:href="#path13_fill" transform="translate(-8318 10170)"/>
</g>
<g id="Vector">
<use xlink:href="#path14_fill" transform="translate(-8318 10168.2)"/>
</g>
<g id="Vector">
<use xlink:href="#path15_fill" transform="translate(-8300.5 10159.5)"/>
</g>
</g>
</g>
<defs>
<path id="path0_fill" fill-rule="evenodd" d="M 0.583329 5.83333L 4.08331 5.83333C 4.40547 5.83333 4.66664 5.57217 4.66664 5.25L 4.66664 0.583333C 4.66664 0.261167 4.40547 0 4.08331 0L 0.583329 0C 0.261165 0 0 0.261167 0 0.583333L 0 5.25C 0 5.57217 0.261165 5.83333 0.583329 5.83333ZM 1.16666 4.66667L 1.16666 1.16667L 3.49998 1.16667L 3.49998 4.66667L 1.16666 4.66667Z"/>
<path id="path1_fill" fill-rule="evenodd" d="M 0.583329 5.83333L 4.08331 5.83333C 4.40547 5.83333 4.66664 5.57217 4.66664 5.25L 4.66664 0.583333C 4.66664 0.261167 4.40547 0 4.08331 0L 0.583329 0C 0.261165 0 0 0.261167 0 0.583333L 0 5.25C 0 5.57217 0.261165 5.83333 0.583329 5.83333ZM 1.16666 4.66667L 1.16666 1.16667L 3.49998 1.16667L 3.49998 4.66667L 1.16666 4.66667Z"/>
<path id="path2_fill" fill-rule="evenodd" d="M 33.6184 7L 1.38191 7C 1.2631 7 1.16666 6.90361 1.16666 6.78533L 1.16666 1.38133C 1.16666 1.26306 1.2631 1.16667 1.38191 1.16667L 33.6184 1.16667C 33.737 1.16667 33.8331 1.26282 33.8331 1.38133L 33.8331 6.78533C 33.8331 6.90385 33.737 7 33.6184 7ZM 33.6184 8.16667C 34.3815 8.16667 34.9998 7.54805 34.9998 6.78533L 34.9998 1.38133C 34.9998 0.618615 34.3815 4.14483e-15 33.6184 4.14483e-15L 1.38191 4.14483e-15C 0.618903 4.14483e-15 5.89446e-12 0.618594 5.89446e-12 1.38133L 5.89446e-12 6.78533C 5.89446e-12 7.54807 0.618903 8.16667 1.38191 8.16667L 33.6184 8.16667Z"/>
<path id="path3_fill" fill-rule="evenodd" d="M 2.33332 1.75C 2.33332 2.07242 2.0724 2.33333 1.74999 2.33333C 1.42757 2.33333 1.16666 2.07242 1.16666 1.75C 1.16666 1.42758 1.42757 1.16667 1.74999 1.16667C 2.0724 1.16667 2.33332 1.42758 2.33332 1.75ZM 3.49998 1.75C 3.49998 0.783251 2.71673 0 1.74999 0C 0.783245 0 0 0.783251 0 1.75C 0 2.71675 0.783245 3.5 1.74999 3.5C 2.71673 3.5 3.49998 2.71675 3.49998 1.75Z"/>
<path id="path4_fill" fill-rule="evenodd" d="M 2.33332 1.75C 2.33332 2.07242 2.0724 2.33333 1.74999 2.33333C 1.42757 2.33333 1.16666 2.07242 1.16666 1.75C 1.16666 1.42758 1.42757 1.16667 1.74999 1.16667C 2.0724 1.16667 2.33332 1.42758 2.33332 1.75ZM 3.49998 1.75C 3.49998 0.783251 2.71673 0 1.74999 0C 0.783245 0 0 0.783251 0 1.75C 0 2.71675 0.783245 3.5 1.74999 3.5C 2.71673 3.5 3.49998 2.71675 3.49998 1.75Z"/>
<path id="path5_fill" fill-rule="evenodd" d="M 1.16666 3.5L 1.16666 1.44667C 1.16666 1.29225 1.29224 1.16667 1.44666 1.16667L 31.2198 1.16667C 31.3742 1.16667 31.4998 1.29225 31.4998 1.44667L 31.4998 3.5L 1.16666 3.5ZM 32.0831 4.66667C 32.4053 4.66667 32.6664 4.4055 32.6664 4.08333L 32.6664 1.44667C 32.6664 0.647917 32.0185 0 31.2198 0L 1.44666 0C 0.647913 0 0 0.647917 0 1.44667L 0 4.08333C 0 4.4055 0.261165 4.66667 0.583329 4.66667L 32.0831 4.66667Z"/>
<path id="path6_fill" fill-rule="evenodd" d="M 0.583329 1.16667L 34.4164 1.16667C 34.7386 1.16667 34.9998 0.905499 34.9998 0.583333C 34.9998 0.261167 34.7386 0 34.4164 0L 0.583329 0C 0.261165 0 0 0.261167 0 0.583333C 0 0.905499 0.261165 1.16667 0.583329 1.16667Z"/>
<path id="path7_fill" fill-rule="evenodd" d="M 0.583329 19.8333L 4.08331 19.8333C 4.40547 19.8333 4.66664 19.5722 4.66664 19.25L 4.66664 0.583333C 4.66664 0.261167 4.40547 0 4.08331 0L 0.583329 0C 0.261165 0 0 0.261167 0 0.583333L 0 19.25C 0 19.5722 0.261165 19.8333 0.583329 19.8333ZM 1.16666 18.6667L 1.16666 1.16667L 3.49998 1.16667L 3.49998 18.6667L 1.16666 18.6667Z"/>
<path id="path8_fill" fill-rule="evenodd" d="M 0.583329 4.66667L 18.6665 4.66667C 18.9887 4.66667 19.2499 4.4055 19.2499 4.08333L 19.2499 0.583333C 19.2499 0.261167 18.9887 0 18.6665 0L 0.583329 0C 0.261165 0 0 0.261167 0 0.583333L 0 4.08333C 0 4.4055 0.261165 4.66667 0.583329 4.66667ZM 1.16666 1.16667L 18.0832 1.16667L 18.0832 3.5L 1.16666 3.5L 1.16666 1.16667Z"/>
<path id="path9_fill" fill-rule="evenodd" d="M 0.583329 5.83333L 6.41662 5.83333C 6.73879 5.83333 6.99995 5.57217 6.99995 5.25L 6.99995 0.583333C 6.99995 0.261167 6.73879 0 6.41662 0L 0.583329 0C 0.261165 0 0 0.261167 0 0.583333L 0 5.25C 0 5.57217 0.261165 5.83333 0.583329 5.83333ZM 1.16666 4.66667L 1.16666 1.16667L 5.83329 1.16667L 5.83329 4.66667L 1.16666 4.66667Z"/>
<path id="path10_fill" fill-rule="evenodd" d="M 0.583329 3.5L 5.24996 3.5C 5.57213 3.5 5.83329 3.23883 5.83329 2.91667L 5.83329 0.583333C 5.83329 0.261167 5.57213 0 5.24996 0L 0.583329 0C 0.261165 0 0 0.261167 0 0.583333L 0 2.91667C 0 3.23883 0.261165 3.5 0.583329 3.5ZM 1.16666 1.16667L 4.66664 1.16667L 4.66664 2.33333L 1.16666 2.33333L 1.16666 1.16667Z"/>
<path id="path11_fill" fill-rule="evenodd" d="M 2.33332 1.16667L 2.33332 2.33333C 2.33332 2.65575 2.0724 2.91667 1.74999 2.91667C 1.42757 2.91667 1.16666 2.65575 1.16666 2.33333L 1.16666 1.16667L 2.33332 1.16667ZM 1.74999 4.08333C 2.71673 4.08333 3.49998 3.30008 3.49998 2.33333L 3.49998 0.583333C 3.49998 0.261167 3.23881 1.03621e-15 2.91665 1.03621e-15L 0.583329 1.03621e-15C 0.261165 1.03621e-15 0 0.261167 0 0.583333L 0 2.33333C 0 3.30008 0.783245 4.08333 1.74999 4.08333Z"/>
<path id="path12_fill" fill-rule="evenodd" d="M 1.16666 2.91667L 1.16666 0.583333C 1.16666 0.261167 0.905493 0 0.583329 0C 0.261165 0 0 0.261167 0 0.583333L 0 2.91667C 0 3.23883 0.261165 3.5 0.583329 3.5C 0.905493 3.5 1.16666 3.23883 1.16666 2.91667Z"/>
<path id="path13_fill" fill-rule="evenodd" d="M 4.08331 0L 0.583329 0C 0.261165 0 0 0.261167 0 0.583333C 0 0.905499 0.261165 1.16667 0.583329 1.16667L 4.08331 1.16667C 4.40547 1.16667 4.66664 0.905499 4.66664 0.583333C 4.66664 0.261167 4.40547 0 4.08331 0Z"/>
<path id="path14_fill" fill-rule="evenodd" d="M 0 0.583333L 0 4.08333C 0 4.4055 0.261165 4.66667 0.583329 4.66667C 0.905493 4.66667 1.16666 4.4055 1.16666 4.08333L 1.16666 0.583333C 1.16666 0.261167 0.905493 0 0.583329 0C 0.261165 0 0 0.261167 0 0.583333Z"/>
<path id="path15_fill" fill-rule="evenodd" d="M 1.16666 4.08333L 1.16666 1.16667L 3.49998 1.16667L 3.49998 6.94167C 2.16857 6.67148 1.16666 5.49456 1.16666 4.08333ZM 4.08331 8.16667C 4.40547 8.16667 4.66664 7.9055 4.66664 7.58333L 4.66664 0.583333C 4.66664 0.261167 4.40547 0 4.08331 0L 0.583329 0C 0.261165 0 0 0.261167 0 0.583333L 0 4.08333C 0 6.33867 1.82799 8.16667 4.08331 8.16667Z"/>
</defs>
</svg>
