<?xml version="1.0" encoding="utf-8"?>
<!-- Generator: Adobe Illustrator 19.2.1, SVG Export Plug-In . SVG Version: 6.00 Build 0)  -->
<svg version="1.1" id="Слой_1" xmlns="http://www.w3.org/2000/svg" xmlns:xlink="http://www.w3.org/1999/xlink" x="0px" y="0px"
	 viewBox="0 0 20 20" enable-background="new 0 0 20 20" xml:space="preserve">
<g id="info">
</g>
<g id="icons">
	<g id="block">
		<path d="M6,0H2C0.9,0,0,0.9,0,2v4c0,1.1,0.9,2,2,2h4c1.1,0,2-0.9,2-2V2C8,0.9,7.1,0,6,0z"/>
		<path d="M18,0h-4c-1.1,0-2,0.9-2,2v4c0,1.1,0.9,2,2,2h4c1.1,0,2-0.9,2-2V2C20,0.9,19.1,0,18,0z"/>
		<path d="M6,12H2c-1.1,0-2,0.9-2,2v4c0,1.1,0.9,2,2,2h4c1.1,0,2-0.9,2-2v-4C8,12.9,7.1,12,6,12z"/>
		<path d="M18,12h-4c-1.1,0-2,0.9-2,2v4c0,1.1,0.9,2,2,2h4c1.1,0,2-0.9,2-2v-4C20,12.9,19.1,12,18,12z"/>
	</g>
</g>
</svg>
