<?xml version="1.0" encoding="utf-8"?>
<!-- Generator: Adobe Illustrator 21.1.0, SVG Export Plug-In . SVG Version: 6.00 Build 0)  -->
<svg version="1.1" id="Слой_1" xmlns="http://www.w3.org/2000/svg" xmlns:xlink="http://www.w3.org/1999/xlink" x="0px" y="0px"
	 viewBox="0 0 24 14" enable-background="new 0 0 24 14" xml:space="preserve">
<title></title>
<g id="VK_Logo">
	<path fill="#303C42" d="M20,8c0.2-0.4,1.1-1.7,1.7-2.7C23.7,2.5,24,1.9,24,1.5C24,1.2,23.8,1,23.5,1H19c-0.2,0-0.4,0.2-0.5,0.4
		c-0.3,1.4-3.5,5.3-4,5.6C14.3,7,14,6.5,14,5.5V1.3c0.1-0.3,0-0.7-0.2-0.9C13.4,0,12.9,0,11.5,0C8.9,0,8,0.8,8,1.5
		C8,1.8,8.2,2,8.4,2c0,0,0,0,0,0C8.5,2,9,2.4,9,4.5C9,5.3,9,6.2,8.9,7C7.6,6.8,5.8,3.6,5,1.3C4.9,1.1,4.7,1,4.5,1h-4
		C0.2,1,0,1.2,0,1.5c0,0,0,0.1,0,0.1C0.6,4.6,6.9,14,11,14h2c1.1,0,1.1-1.1,1.2-1.9s0.1-1.1,0.3-1.1c0.6,0,1.9,1.1,2.7,1.8
		S18.6,14,19,14h2.5c1.3,0,2.5,0,2.5-1c0-0.4-0.3-0.8-2.2-3C21.1,9.3,20.3,8.4,20,8z"/>
</g>
</svg>
