<svg width="82" height="82" viewBox="0 0 82 82" version="1.1" xmlns="http://www.w3.org/2000/svg" xmlns:xlink="http://www.w3.org/1999/xlink">
<title>/next</title>
<desc>Created using Figma</desc>
<g id="Canvas" transform="translate(-3534 -10758)">
<g id="btn/next" filter="url(#filter0_b)">
<use xlink:href="#path0_fill" transform="translate(3535 10759)" fill="#FFFFFF" fill-opacity="0.8"/>
<mask id="mask0_outline_out">
<rect id="mask0_outline_inv" fill="white" x="-1" y="-1" width="82" height="82" transform="translate(3535 10759)"/>
<use xlink:href="#path0_fill" fill="black" transform="translate(3535 10759)"/>
</mask>
<g mask="url(#mask0_outline_out)">
<use xlink:href="#path1_stroke_2x" transform="translate(3535 10759)" fill="#000000" fill-opacity="0.07"/>
</g>
</g>
</g>
<defs>
<filter id="filter0_b" filterUnits="userSpaceOnUse" x="3524" y="10748" width="102" height="102" color-interpolation-filters="sRGB">
<feFlood flood-opacity="0" result="BackgroundImageFix"/>
<feGaussianBlur in="BackgroundImage" stdDeviation="5"/>
<feComposite in2="SourceAlpha" operator="in" result="effect1_backgroundBlur"/>
<feBlend mode="normal" in="SourceGraphic" in2="effect1_backgroundBlur" result="shape"/>
</filter>
<path id="path0_fill" fill-rule="evenodd" d="M 80 40C 80 62.0918 62.0916 80 40 80C 17.9084 80 0 62.0918 0 40C 0 17.9082 17.9084 0 40 0C 62.0916 0 80 17.9082 80 40ZM 42.0298 24.5781L 39.407 21.9209L 34.0935 27.167L 36.7163 29.8232L 43.8677 37.0674L 26.1331 37.0674L 22.3997 37.0674L 22.3997 44.5342L 26.1331 44.5342L 43.8677 44.5342L 36.7163 51.7773L 34.0935 54.4346L 39.407 59.6797L 42.0298 57.0234L 55.4563 43.4238L 58.0459 40.8008L 55.4563 38.1777L 42.0298 24.5781Z"/>
<path id="path1_stroke_2x" d="M 39.407 21.9209L 40.1187 21.2184L 39.4161 20.5066L 38.7044 21.2093L 39.407 21.9209ZM 42.0298 24.5781L 41.3181 25.2806L 41.3182 25.2807L 42.0298 24.5781ZM 34.0935 27.167L 33.3909 26.4554L 32.6793 27.158L 33.3819 27.8696L 34.0935 27.167ZM 36.7163 29.8232L 37.428 29.1207L 37.4279 29.1206L 36.7163 29.8232ZM 43.8677 37.0674L 43.8677 38.0674L 46.2601 38.0674L 44.5793 36.3648L 43.8677 37.0674ZM 22.3997 37.0674L 22.3997 36.0674L 21.3997 36.0674L 21.3997 37.0674L 22.3997 37.0674ZM 22.3997 44.5342L 21.3997 44.5342L 21.3997 45.5342L 22.3997 45.5342L 22.3997 44.5342ZM 43.8677 44.5342L 44.5793 45.2368L 46.2603 43.5342L 43.8677 43.5342L 43.8677 44.5342ZM 36.7163 51.7773L 36.0047 51.0748L 36.0046 51.0749L 36.7163 51.7773ZM 34.0935 54.4346L 33.3818 53.7321L 32.6794 54.4438L 33.391 55.1462L 34.0935 54.4346ZM 39.407 59.6797L 38.7045 60.3914L 39.416 61.0938L 40.1186 60.3823L 39.407 59.6797ZM 42.0298 57.0234L 42.7414 57.7261L 42.7414 57.726L 42.0298 57.0234ZM 55.4563 43.4238L 56.1679 44.1264L 56.1679 44.1264L 55.4563 43.4238ZM 58.0459 40.8008L 58.7575 41.5033L 59.4511 40.8008L 58.7575 40.0982L 58.0459 40.8008ZM 55.4563 38.1777L 56.1679 37.4752L 56.1679 37.4752L 55.4563 38.1777ZM 40 81C 62.6438 81 81 62.6441 81 40L 79 40C 79 61.5395 61.5393 79 40 79L 40 81ZM -1 40C -1 62.6441 17.3562 81 40 81L 40 79C 18.4607 79 1 61.5395 1 40L -1 40ZM 40 -1C 17.3562 -1 -1 17.3559 -1 40L 1 40C 1 18.4605 18.4607 1 40 1L 40 -1ZM 81 40C 81 17.3559 62.6438 -1 40 -1L 40 1C 61.5393 1 79 18.4605 79 40L 81 40ZM 38.6953 22.6234L 41.3181 25.2806L 42.7415 23.8756L 40.1187 21.2184L 38.6953 22.6234ZM 34.7961 27.8786L 40.1096 22.6325L 38.7044 21.2093L 33.3909 26.4554L 34.7961 27.8786ZM 37.4279 29.1206L 34.8051 26.4644L 33.3819 27.8696L 36.0047 30.5259L 37.4279 29.1206ZM 44.5793 36.3648L 37.428 29.1207L 36.0047 30.5258L 43.156 37.7699L 44.5793 36.3648ZM 26.1331 38.0674L 43.8677 38.0674L 43.8677 36.0674L 26.1331 36.0674L 26.1331 38.0674ZM 22.3997 38.0674L 26.1331 38.0674L 26.1331 36.0674L 22.3997 36.0674L 22.3997 38.0674ZM 23.3997 44.5342L 23.3997 37.0674L 21.3997 37.0674L 21.3997 44.5342L 23.3997 44.5342ZM 26.1331 43.5342L 22.3997 43.5342L 22.3997 45.5342L 26.1331 45.5342L 26.1331 43.5342ZM 43.8677 43.5342L 26.1331 43.5342L 26.1331 45.5342L 43.8677 45.5342L 43.8677 43.5342ZM 37.4279 52.4799L 44.5793 45.2368L 43.1561 43.8316L 36.0047 51.0748L 37.4279 52.4799ZM 34.8052 55.1371L 37.428 52.4798L 36.0046 51.0749L 33.3818 53.7321L 34.8052 55.1371ZM 40.1095 58.968L 34.796 53.7229L 33.391 55.1462L 38.7045 60.3914L 40.1095 58.968ZM 41.3182 56.3208L 38.6954 58.9771L 40.1186 60.3823L 42.7414 57.7261L 41.3182 56.3208ZM 54.7447 42.7213L 41.3182 56.3209L 42.7414 57.726L 56.1679 44.1264L 54.7447 42.7213ZM 57.3343 40.0982L 54.7447 42.7213L 56.1679 44.1264L 58.7575 41.5033L 57.3343 40.0982ZM 54.7447 38.8803L 57.3343 41.5033L 58.7575 40.0982L 56.1679 37.4752L 54.7447 38.8803ZM 41.3182 25.2807L 54.7447 38.8803L 56.1679 37.4752L 42.7414 23.8756L 41.3182 25.2807Z"/>
</defs>
</svg>
