<svg width="1076" height="160" viewBox="0 0 1076 160" version="1.1" xmlns="http://www.w3.org/2000/svg" xmlns:xlink="http://www.w3.org/1999/xlink">
<title>logo</title>
<desc>Created using Figma</desc>
<g id="Canvas" transform="matrix(4 0 0 4 42940 -40200)">
<g id="logo">
<g id="Group">
<g id="MEDIA">
<use xlink:href="#path0_fill" transform="translate(-10675 10072)" fill="#EF0027"/>
<use xlink:href="#path1_fill" transform="translate(-10675 10072)" fill="#EF0027"/>
<use xlink:href="#path2_fill" transform="translate(-10675 10072)" fill="#EF0027"/>
<use xlink:href="#path3_fill" transform="translate(-10675 10072)" fill="#EF0027"/>
<use xlink:href="#path4_fill" transform="translate(-10675 10072)" fill="#EF0027"/>
</g>
</g>
<g id="Group">
<g id="&#208;&#154;&#208;&#176;&#208;&#187;&#208;&#176;&#209;&#136;&#208;&#189;&#208;&#184;&#208;&#186;&#208;&#190;&#208;&#178;">
<use xlink:href="#path5_fill" transform="translate(-10675 10050)"/>
<use xlink:href="#path6_fill" transform="translate(-10675 10050)"/>
<use xlink:href="#path7_fill" transform="translate(-10675 10050)"/>
<use xlink:href="#path8_fill" transform="translate(-10675 10050)"/>
<use xlink:href="#path9_fill" transform="translate(-10675 10050)"/>
<use xlink:href="#path10_fill" transform="translate(-10675 10050)"/>
<use xlink:href="#path11_fill" transform="translate(-10675 10050)"/>
<use xlink:href="#path12_fill" transform="translate(-10675 10050)"/>
<use xlink:href="#path13_fill" transform="translate(-10675 10050)"/>
<use xlink:href="#path14_fill" transform="translate(-10675 10050)"/>
</g>
</g>
<g id="outer">
<use xlink:href="#path15_fill" transform="translate(-10735 10050)"/>
</g>
<g id="inner">
<use xlink:href="#path16_fill" transform="translate(-10725 10060)" fill="#EF0027"/>
</g>
</g>
</g>
<defs>
<path id="path0_fill" d="M 15.3351 18L 19.116 18L 19.116 0L 13.8281 0L 9.54479 11.2264L 5.26153 0L 0 0L 0 18L 3.75446 18L 3.75446 5.04648L 8.72516 18L 10.3644 18L 15.3351 5.04648L 15.3351 18Z"/>
<path id="path1_fill" d="M 23.9405 18L 36.4201 18L 36.4201 14.6807L 27.6949 14.6807L 27.6949 10.4978L 36.235 10.4978L 36.235 7.2054L 27.6949 7.2054L 27.6949 3.29235L 36.4201 3.29235L 36.4201 0L 23.9405 0L 23.9405 18Z"/>
<path id="path2_fill" d="M 40.6771 18L 47.6308 18C 53.1567 18 56.9905 14.4378 56.9905 9.01349C 56.9905 3.5892 53.1567 0 47.6308 0L 40.6771 0L 40.6771 18ZM 44.4316 14.6267L 44.4316 3.37331L 47.6308 3.37331C 51.2531 3.37331 53.1567 5.82908 53.1567 9.01349C 53.1567 12.063 51.1209 14.6267 47.6308 14.6267L 44.4316 14.6267Z"/>
<path id="path3_fill" d="M 60.9769 18L 64.7314 18L 64.7314 0L 60.9769 0L 60.9769 18Z"/>
<path id="path4_fill" d="M 81.9018 18L 86 18L 79.205 0L 74.4987 0L 67.6772 18L 71.8018 18L 72.9123 14.8966L 80.7914 14.8966L 81.9018 18ZM 76.8518 3.31934L 79.7602 11.5772L 73.917 11.5772L 76.8518 3.31934Z"/>
<path id="path5_fill" fill-rule="evenodd" d="M 181.224 0C 175.459 0 171.267 3.61414 171.267 9.39674C 171.267 15.0761 175.459 18.8967 181.224 19C 186.989 19 191.182 15.0761 191.182 9.39674C 191.182 3.61414 186.989 0 181.224 0ZM 181.224 3.92392C 184.369 3.92392 186.465 6.19566 186.465 9.39674C 186.465 12.5978 184.264 14.9728 181.224 14.9728C 178.08 14.9728 175.983 12.7011 175.983 9.39674C 175.983 6.29891 178.08 3.92392 181.224 3.92392Z"/>
<path id="path6_fill" d="M 4.29746 0.413034L 0 0.413034L 0 18.4837L 4.29746 18.4837L 4.29746 10.1196L 4.40219 10.1196L 11.1104 18.4837L 16.8752 18.4837L 8.59469 8.77717L 16.4558 0.413034L 10.9007 0.413034L 4.40219 7.74457L 4.29746 7.74457L 4.29746 0.413034Z"/>
<path id="path7_fill" fill-rule="evenodd" d="M 29.1385 0.413034L 24.8413 0.413034L 16.9801 18.3804L 21.8017 18.3804L 23.1643 14.8695L 30.2917 14.8695L 31.759 18.3804L 36.6853 18.3804L 29.1385 0.413034ZM 26.8327 5.26631L 29.1385 11.4619L 24.5269 11.4619L 26.8327 5.26631Z"/>
<path id="path8_fill" fill-rule="evenodd" d="M 65.0898 0.413034L 69.387 0.413034L 76.9338 18.3804L 72.0075 18.3804L 70.5402 14.8695L 63.4128 14.8695L 62.0502 18.3804L 57.2286 18.3804L 65.0898 0.413034ZM 69.492 11.4619L 67.1859 5.26631L 64.8801 11.4619L 69.492 11.4619Z"/>
<path id="path9_fill" d="M 84.3755 0.413034L 79.9733 0.413034L 79.9733 18.4837L 104.709 18.4837L 104.709 0.413034L 100.307 0.413034L 100.307 14.7663L 94.5425 14.7663L 94.5425 0.413034L 90.1403 0.413034L 90.1403 14.7663L 84.3755 14.7663L 84.3755 0.413034Z"/>
<path id="path10_fill" d="M 110.37 0.413034L 114.772 0.413034L 114.772 7.22826L 121.899 7.22826L 121.899 0.413034L 126.406 0.413034L 126.406 18.4837L 121.899 18.4837L 121.899 10.9456L 114.772 10.9456L 114.772 18.4837L 110.37 18.4837L 110.37 0.413034Z"/>
<path id="path11_fill" d="M 136.364 0.413034L 131.962 0.413034L 131.962 18.4837L 136.678 18.4837L 143.701 6.91847L 143.805 6.91847L 143.805 18.4837L 148.103 18.4837L 148.103 0.413034L 143.491 0.413034L 136.468 12.288L 136.364 12.288L 136.364 0.413034Z"/>
<path id="path12_fill" d="M 153.763 0.413034L 158.165 0.413034L 158.165 7.74457L 164.768 0.413034L 170.219 0.413034L 162.358 8.77717L 170.743 18.4837L 164.978 18.4837L 158.165 10.1196L 158.165 18.4837L 153.763 18.4837L 153.763 0.413034Z"/>
<path id="path13_fill" fill-rule="evenodd" d="M 194.85 0.413034L 202.082 0.413034C 204.912 0.413034 208.266 1.44563 208.266 5.05978C 208.266 7.02172 207.009 8.36413 205.227 8.9837C 207.323 9.29348 209 10.8424 209 13.2174C 209 17.1413 205.541 18.4837 201.977 18.4837L 194.745 18.4837L 194.745 0.413034L 194.85 0.413034ZM 201.453 7.64129C 203.13 7.64129 204.074 6.91847 204.074 5.67934C 204.074 4.44021 203.13 3.9239 201.244 3.9239L 199.043 3.9239L 199.043 7.64129L 201.453 7.64129ZM 201.558 14.9728C 202.921 14.9728 204.703 14.5598 204.703 12.8043C 204.703 11.2554 203.445 10.8424 201.558 10.8424L 199.147 10.8424L 199.147 14.9728L 201.558 14.9728Z"/>
<path id="path14_fill" d="M 44.8606 0.413034L 49.158 0.413034L 56.7048 18.4837L 51.7785 18.4837L 46.8522 5.26631L 41.9259 18.4837L 37.1044 18.4837L 44.8606 0.413034Z"/>
<path id="path15_fill" d="M 40 0L 0 0L 0 40L 40 40L 20 20L 40 0Z"/>
<path id="path16_fill" d="M 20 0L 0 0L 0 20L 20 20L 10 10L 20 0Z"/>
</defs>
</svg>
