<svg width="82" height="82" viewBox="0 0 82 82" xmlns="http://www.w3.org/2000/svg" xmlns:xlink="http://www.w3.org/1999/xlink">
    <title>
        /next
    </title>
    <desc>
        Created using Figma
    </desc>
    <g filter="url(#a)" transform="translate(-3534 -10758)">
        <use xlink:href="#b" transform="translate(3535 10759)" fill="#FFF" fill-opacity=".8"/>
        <mask id="c">
            <path fill="#fff" transform="translate(3535 10759)" d="M-1-1h82v82H-1z"/>
            <use xlink:href="#b" transform="translate(3535 10759)"/>
        </mask>
        <g mask="url(#c)">
            <use xlink:href="#d" transform="translate(3535 10759)" fill-opacity=".07"/>
        </g>
    </g>
    <defs>
        <filter id="a" filterUnits="userSpaceOnUse" x="3524" y="10748" width="102" height="102" color-interpolation-filters="sRGB">
            <feFlood flood-opacity="0" result="BackgroundImageFix"/>
            <feGaussianBlur in="BackgroundImage" stdDeviation="5"/>
            <feComposite in2="SourceAlpha" operator="in" result="effect1_backgroundBlur"/>
            <feBlend in="SourceGraphic" in2="effect1_backgroundBlur" result="shape"/>
        </filter>
        <path id="b" fill-rule="evenodd" d="M80 40c0 22.092-17.908 40-40 40S0 62.092 0 40 17.908 0 40 0s40 17.908 40 40zM42.03 24.578l-2.623-2.657-5.313 5.246 2.622 2.656 7.152 7.244H22.4v7.467h21.468l-7.152 7.243-2.623 2.658 5.314 5.245 2.623-2.657 13.426-13.6 2.59-2.622-2.59-2.623-13.426-13.6z"/>
        <path id="d" d="M39.407 21.92l.712-.702-.703-.711-.712.702.703.712zm2.623 2.658l-.712.703.712-.703zm-7.937 2.589l-.702-.712-.712.703.703.712.712-.703zm2.623 2.656l.712-.702-.712.702zm7.152 7.244v1h2.392l-1.68-1.702-.712.702zm-21.468 0v-1h-1v1h1zm0 7.467h-1v1h1v-1zm21.468 0l.711.703 1.681-1.703h-2.392v1zm-7.152 7.243l-.711-.702.711.702zm-2.623 2.658l-.711-.703-.703.712.712.702.703-.711zm5.314 5.245l-.702.711.711.703.703-.712-.712-.702zm2.623-2.657l.711.703-.711-.703zm13.426-13.6l.712.703-.712-.702zm2.59-2.622l.712.702.693-.702-.694-.703-.711.703zm-2.59-2.623l.712-.703-.712.703zM40 81c22.644 0 41-18.356 41-41h-2c0 21.54-17.46 39-39 39v2zM-1 40c0 22.644 18.356 41 41 41v-2C18.46 79 1 61.54 1 40h-2zM40-1C17.356-1-1 17.356-1 40h2C1 18.46 18.46 1 40 1v-2zm41 41C81 17.356 62.644-1 40-1v2c21.54 0 39 17.46 39 39h2zM38.695 22.623l2.623 2.658 1.424-1.405-2.623-2.658-1.424 1.405zm-3.899 5.256l5.314-5.247-1.406-1.423-5.313 5.246 1.405 1.424zm2.632 1.242l-2.623-2.657-1.423 1.406 2.623 2.656 1.423-1.405zm7.151 7.244l-7.151-7.244-1.423 1.405 7.151 7.244 1.423-1.405zm-18.446 1.702h17.735v-2H26.133v2zm-3.733 0h3.733v-2H22.4v2zm1 6.467v-7.467h-2v7.467h2zm2.733-1H22.4v2h3.733v-2zm17.735 0H26.133v2h17.735v-2zm-6.44 8.946l7.151-7.243-1.423-1.405-7.151 7.243 1.423 1.405zm-2.623 2.657l2.623-2.657-1.423-1.405-2.623 2.657 1.423 1.405zm5.304 3.831l-5.313-5.245-1.405 1.423 5.314 5.245 1.404-1.423zm1.21-2.647l-2.624 2.656 1.424 1.405 2.622-2.656-1.423-1.405zm13.426-13.6l-13.427 13.6 1.423 1.405 13.427-13.6-1.423-1.405zm2.59-2.623l-2.59 2.623 1.423 1.405 2.59-2.623-1.424-1.405zm-2.59-1.218l2.59 2.623 1.422-1.405-2.59-2.623-1.422 1.405zm-13.427-13.6l13.427 13.6 1.423-1.405-13.427-13.6-1.423 1.406z"/>
    </defs>
</svg>
