<?xml version="1.0" encoding="UTF-8"?><!DOCTYPE svg PUBLIC "-//W3C//DTD SVG 1.1//EN" "http://www.w3.org/Graphics/SVG/1.1/DTD/svg11.dtd"><svg xmlns="http://www.w3.org/2000/svg" xmlns:xlink="http://www.w3.org/1999/xlink"><defs>
        <path id="a" fill-rule="evenodd" d="M.583 5.833h3.5a.583.583 0 0 0 .584-.583V.583A.583.583 0 0 0 4.083 0h-3.5A.583.583 0 0 0 0 .583V5.25c0 .322.261.583.583.583zm.584-1.166v-3.5H3.5v3.5H1.167z"/>
        <path id="b" fill-rule="evenodd" d="M.583 5.833h3.5a.583.583 0 0 0 .584-.583V.583A.583.583 0 0 0 4.083 0h-3.5A.583.583 0 0 0 0 .583V5.25c0 .322.261.583.583.583zm.584-1.166v-3.5H3.5v3.5H1.167z"/>
        <path id="c" fill-rule="evenodd" d="M33.618 7H1.382a.215.215 0 0 1-.215-.215V1.381c0-.118.096-.214.215-.214h32.236c.119 0 .215.096.215.214v5.404a.215.215 0 0 1-.215.215zm0 1.167c.764 0 1.382-.619 1.382-1.382V1.381C35 .62 34.382 0 33.618 0H1.382C.619 0 0 .619 0 1.381v5.404c0 .763.619 1.382 1.382 1.382h32.236z"/>
        <path id="d" fill-rule="evenodd" d="M2.333 1.75a.583.583 0 1 1-1.166 0 .583.583 0 0 1 1.166 0zm1.167 0a1.75 1.75 0 1 0-3.5 0 1.75 1.75 0 0 0 3.5 0z"/>
        <path id="e" fill-rule="evenodd" d="M2.333 1.75a.583.583 0 1 1-1.166 0 .583.583 0 0 1 1.166 0zm1.167 0a1.75 1.75 0 1 0-3.5 0 1.75 1.75 0 0 0 3.5 0z"/>
        <path id="f" fill-rule="evenodd" d="M1.167 3.5V1.447a.28.28 0 0 1 .28-.28H31.22a.28.28 0 0 1 .28.28V3.5H1.167zm30.916 1.167a.583.583 0 0 0 .583-.584V1.447C32.666.647 32.02 0 31.22 0H1.447C.647 0 0 .648 0 1.447v2.636c0 .322.261.584.583.584h31.5z"/>
        <path id="g" fill-rule="evenodd" d="M.583 1.167h33.833a.583.583 0 1 0 0-1.167H.583a.583.583 0 0 0 0 1.167z"/>
        <path id="h" fill-rule="evenodd" d="M.583 19.833h3.5a.583.583 0 0 0 .584-.583V.583A.583.583 0 0 0 4.083 0h-3.5A.583.583 0 0 0 0 .583V19.25c0 .322.261.583.583.583zm.584-1.166v-17.5H3.5v17.5H1.167z"/>
        <path id="i" fill-rule="evenodd" d="M.583 4.667h18.084a.583.583 0 0 0 .583-.584v-3.5A.583.583 0 0 0 18.666 0H.584A.583.583 0 0 0 0 .583v3.5c0 .322.261.584.583.584zm.584-3.5h16.916V3.5H1.167V1.167z"/>
        <path id="j" fill-rule="evenodd" d="M.583 5.833h5.834A.583.583 0 0 0 7 5.25V.583A.583.583 0 0 0 6.417 0H.583A.583.583 0 0 0 0 .583V5.25c0 .322.261.583.583.583zm.584-1.166v-3.5h4.666v3.5H1.167z"/>
        <path id="k" fill-rule="evenodd" d="M.583 3.5H5.25a.583.583 0 0 0 .583-.583V.583A.583.583 0 0 0 5.25 0H.583A.583.583 0 0 0 0 .583v2.334c0 .322.261.583.583.583zm.584-2.333h3.5v1.166h-3.5V1.167z"/>
        <path id="l" fill-rule="evenodd" d="M2.333 1.167v1.166a.583.583 0 1 1-1.166 0V1.167h1.166zM1.75 4.083a1.75 1.75 0 0 0 1.75-1.75V.583A.583.583 0 0 0 2.917 0H.583A.583.583 0 0 0 0 .583v1.75c0 .967.783 1.75 1.75 1.75z"/>
        <path id="m" fill-rule="evenodd" d="M1.167 2.917V.583A.583.583 0 1 0 0 .583v2.334a.583.583 0 0 0 1.167 0z"/>
        <path id="n" fill-rule="evenodd" d="M4.083 0h-3.5a.583.583 0 0 0 0 1.167h3.5a.583.583 0 0 0 0-1.167z"/>
        <path id="o" fill-rule="evenodd" d="M0 .583v3.5a.583.583 0 1 0 1.167 0v-3.5A.583.583 0 1 0 0 .583z"/>
        <path id="p" fill-rule="evenodd" d="M1.167 4.083V1.167H3.5v5.775a2.917 2.917 0 0 1-2.333-2.859zm2.916 4.084a.583.583 0 0 0 .584-.584v-7A.583.583 0 0 0 4.083 0h-3.5A.583.583 0 0 0 0 .583v3.5a4.083 4.083 0 0 0 4.083 4.084z"/>
    </defs><symbol id="icon-ak" viewBox="0 0 24.4 81.7">
    <path d="M3.5.5v.9H1.1c-.3 0-.5.2-.5.5v1.6c0 .2.1.4.3.5l2.9 1.3v5l-.4.8-1.9 1.5c-.1.1-.2.2-.2.4v7.1c-.1 0-.3.2-.3.4l-.4 9.9H.4c-.3 0-.5.2-.5.5v6.5c0 .3.2.5.5.5h1.1v18.6c0 .1.1.3.2.4l2.8 2.5L6 66.3l-.9 2.1v.3l2.6 12.5c.1.3.3.4.6.4l10.4-1.8c.2 0 .3-.1.4-.3 0-.1.1-.1.1-.2s0-.2-.1-.2L9.9 60.5l-.1-1.8 1.5-.4 5.2 2c.1.1.3 0 .4 0 1.2-.7 1.9-1.5 2.1-2.5.1-.3.1-.5.1-.8 0-.9-.4-1.6-.4-1.6-.1-.1-.2-.2-.4-.2-2.6-.3-5.5-1.8-6.6-2.5l.4-.5c.1-.1.1-.2.1-.3v-3.4c0-.1-.1-.3-.2-.4l-.5-.4-.3-2.3c3.4-1.1 9.4-3.8 13-10.2 0-.1.1-.2.1-.2 0-.2-.1-.3-.2-.4l-4.5-2.9c-.1-.1-.3-.1-.4-.1s-.2.1-.3.2c0 .1-3.5 5.8-10.4 7.3l-.2-3.6.9-.7c.1-.1.2-.2.2-.4v-.2L8 30.3l-.8-9.8c0-.3-.2-.5-.5-.5h-.6v-5.8c.2 0 .4-.2.4-.5v-3.6c0-.2-.1-.4-.3-.5V5.5 1.8c0-.2-.1-.4-.3-.5v-1C6 .2 5.8 0 5.6 0H4c-.2 0-.5.2-.5.5zm1.8 5v4.2h-.5V5.5h.5zM2 21.1c.1 0 .1-.1.2-.1h1.1v9.3H1.7l.3-9.2zm.6 35.2V37.4c0-.3-.2-.5-.5-.5H1v-5.5h2.6V35c0 .3.2.5.5.5h1v23.1l-2.5-2.3zm5.9 24.3L6.1 68.7l.9-2.1v-.3l-.9-4.7 2.9-.5L17.8 79l-9.3 1.6zm.4-20l-2.9.5-.3-1.6v-24h1.6l1.6 25.1zm9-4.5c.2.5.5 2-1.4 3.2l-5.1-2h-.3l-1.5.4-.3-4.3 1.4-.1c.8.5 4.1 2.4 7.2 2.8zm-6.6-7.4v3l-.6.6-1.3.1-.1-1.1h.8c.1 0 .1 0 .2-.1l.6-.7s.1-.1.1-.2 0-.1-.1-.2-.3-.1-.4 0l-.5.8h-.7l-.1-2.4 1.7-.2.4.4zm-.7-1.4l-1.5.2L9 46c.3-.1.8-.2 1.4-.3l.2 1.6zm12.6-12.2c-.2.4-.5.8-.7 1.1-1.2-.9-2.9-2.2-3.5-2.8.2-.3.4-.6.6-.8l3.6 2.5zm-4.6-1.2c.5.4 1.5 1.2 3.6 2.8-4.6 6.4-11.7 8-13.3 8.3l-.3-4.9c5.1-1.1 8.4-4.3 10-6.2zM7 30.5v.1l1.3 3.7-.3.2H4.7v-3.6c0-.2-.2-.4-.4-.5V21h2l.7 9.5zM4.3 20v-5.8h.9V20h-.9zm1.3-6.8H3.7c-.3 0-.5.2-.5.5V20h-.9v-6.8l1.8-1.4c.1 0 .1-.1.1-.2l.4-.8.1-.1h.8l.1 2.5zM5.4 2.4v2.1h-.9L1.6 3.2v-.8h3.8zM5.1 1v.4h-.5V1h.5z"/>
    <circle cx="2" cy="35.9" r=".4"/>
    <circle cx="2" cy="32.2" r=".4"/>
    <path d="M7.8 62.6c-.2.1-.4.3-.3.6l.6 2.3c.1.2.3.4.6.3.2 0 .3-.3.3-.5L8.4 63c-.1-.3-.3-.4-.6-.4z"/>
</symbol><symbol id="icon-arrow-circle" viewBox="0 0 1792 1792">
    <path d="M1324.8 896.1c0-15.1-5-27.7-15-37.7l-75.8-76.3-301.8-303.4c-10-10-22.5-15.1-37.5-15.1s-27.5 5.1-37.5 15.1L781.3 555c-10 10-15 22.6-15 37.7s5 27.7 15 37.7l157.6 158.4H520.4c-14.4 0-26.9 5.3-37.5 16-10.6 10.6-15.8 23.2-15.8 37.7v107.2c0 14.5 5.2 27.1 15.8 37.7 10.6 10.6 23 16 37.5 16h418.5l-157.6 158.4c-10.6 10.6-15.9 23.2-15.9 37.7 0 14.5 5.2 27.1 15.9 37.7l75.8 76.3c10 10 22.5 15.1 37.5 15.1s27.5-5.1 37.5-15.1l301.8-303.4 75.8-76.3c10-10.1 15.1-22.7 15.1-37.7zm467.2-.1c0 162.6-40.1 312.5-120.2 449.8s-188.8 246-326.1 326.1S1058.6 1792 896 1792s-312.5-40.1-449.8-120.2-246-188.8-326.1-326.1S0 1058.6 0 896s40.1-312.5 120.2-449.8 188.8-246 326.1-326.1S733.4 0 896 0s312.5 40.1 449.8 120.2 246 188.8 326.1 326.1c80 137.2 120.1 287.1 120.1 449.7z"/>
</symbol><symbol id="icon-arr_corner" viewBox="0 0 58.9 58.9">
    <path d="M6.8 57.7l44.1-44.1v30.3c0 2.2 1.8 4 4 4s4-1.8 4-4v-40c0-.3 0-.5-.1-.8 0-.1-.1-.2-.1-.3 0-.1-.1-.3-.1-.4-.1-.1-.1-.3-.2-.4-.1-.1-.1-.2-.2-.3-.1-.2-.3-.4-.5-.6-.2-.2-.4-.3-.6-.5-.1-.1-.2-.1-.3-.2-.1-.1-.2-.1-.4-.2-.1-.1-.3-.1-.4-.1-.1 0-.2-.1-.3-.1H14.9c-2.2 0-4 1.8-4 4s1.8 4 4 4h30.3l-44 44.1c-1.6 1.6-1.6 4.1 0 5.7 1.5 1.5 4.1 1.5 5.6-.1z"/>
</symbol><symbol id="icon-arr_right" viewBox="0 0 80 64.5">
    <path d="M4 36.2h62.4L45 57.7c-1.6 1.6-1.6 4.1 0 5.7 1.6 1.6 4.1 1.6 5.7 0L78.9 35c.2-.2.4-.4.5-.6.1-.1.1-.2.1-.3.1-.1.1-.3.2-.4 0-.1.1-.3.1-.4 0-.1.1-.2.1-.4.1-.2.1-.5.1-.8 0-.3-.1-.5-.1-.8 0-.1-.1-.2-.1-.4s-.1-.2-.1-.4c0-.1-.1-.3-.2-.4-.1-.1-.1-.2-.1-.3l-.6-.6-28.2-28c-1.6-1.6-4.1-1.6-5.7 0s-1.6 4.1 0 5.7l21.4 21.4H4c-2.3 0-4 1.8-4 4s1.8 4 4 3.9z"/>
</symbol><symbol id="icon-arr_slide" viewBox="0 0 32 32">
    <path d="M16.016 0l-5.668 5.672 6.312 6.312H0v8.027h16.66l-6.316 6.316L16.016 32 32 16 16.016 0z"/>
</symbol><symbol id="icon-blocks" viewBox="0 0 48 48">
    <title/>
    <path stroke-width="2" stroke-linecap="round" stroke-linejoin="round" d="M1 1h20v20H1z"/>
    <path stroke-width="2" stroke-linecap="round" stroke-linejoin="round" d="M1 1h20v20H1z"/>
    <path stroke-width="2" stroke-linecap="round" stroke-linejoin="round" d="M27 1h20v20H27z"/>
    <path stroke-width="2" stroke-linecap="round" stroke-linejoin="round" d="M27 27h20v20H27z"/>
    <path stroke-width="2" stroke-linecap="round" stroke-linejoin="round" d="M1 27h20v20H1z"/>
</symbol><symbol id="icon-chain" viewBox="0 0 20 20">
    <title>
        link
    </title>
    <g fill-rule="nonzero">
        <path d="M5.458 12.916c-.36 0-.72-.137-.994-.412L1.665 9.705A5.648 5.648 0 0 1 0 5.685c0-1.518.591-2.946 1.665-4.02A5.648 5.648 0 0 1 5.685 0c1.519 0 2.947.592 4.02 1.665l2.799 2.799a1.405 1.405 0 1 1-1.986 1.986l-2.8-2.798a2.856 2.856 0 0 0-2.032-.843c-.769 0-1.49.3-2.034.843a2.856 2.856 0 0 0-.842 2.033c0 .768.299 1.49.842 2.034l2.8 2.798a1.405 1.405 0 0 1-.994 2.399z"/>
        <path d="M14.33 20.013a5.668 5.668 0 0 1-4.02-1.662l-2.799-2.8a1.405 1.405 0 1 1 1.987-1.986l2.799 2.8a2.88 2.88 0 0 0 4.067-.001 2.88 2.88 0 0 0 0-4.067l-2.799-2.799a1.405 1.405 0 1 1 1.987-1.987l2.799 2.8a5.693 5.693 0 0 1 0 8.04 5.67 5.67 0 0 1-4.02 1.662z"/>
        <g>
            <path d="M14.258 15.663c-.36 0-.72-.137-.994-.412L4.811 6.798a1.405 1.405 0 1 1 1.987-1.986l8.453 8.453a1.405 1.405 0 0 1-.993 2.398z"/>
        </g>
    </g>
</symbol><symbol id="icon-close" viewBox="0 0 357 357">
    <path d="M357 35.7L321.3 0 178.5 142.8 35.7 0 0 35.7l142.8 142.8L0 321.3 35.7 357l142.8-142.8L321.3 357l35.7-35.7-142.8-142.8z"/>
</symbol><symbol id="icon-contact" viewBox="0 0 44 44">
    <path d="M43 6H1a1 1 0 0 0-1 1v30a1 1 0 0 0 1 1h42a1 1 0 0 0 1-1V7a1 1 0 0 0-1-1zm-1 27.581L29.612 21.194l-1.414 1.414L41.59 36H2.41l13.392-13.392-1.414-1.414L2 33.581V8h40v25.581z"/>
    <path d="M39.979 8L22 25.979 4.021 8H2v.807L21.293 28.1a.999.999 0 0 0 1.414 0L42 8.807V8h-2.021z"/>
</symbol><symbol id="icon-dots" viewBox="0 0 90.1 19.6">
    <circle cx="45.1" cy="9.8" r="9.8"/>
    <circle cx="80.3" cy="9.8" r="9.8"/>
    <circle cx="9.8" cy="9.8" r="9.8"/>
</symbol><symbol id="icon-envelope" viewBox="0 0 20 15">
    <title>
        path0_fill
    </title>
    <path d="M0 12.8V2.2v-.1C.2.9 1.3 0 2.5 0h15.1c1.1 0 2.1.8 2.4 1.9 0 .1 0 .2.1.3v10.7c-.2 1-.9 1.8-1.9 2-.5.1-1 .1-1.5.1h-14c-1.2 0-2.1-.7-2.4-1.8-.2-.1-.3-.3-.3-.4zm6.8-5.5l-.9.9-3.2 3.2c-.2.2-.3.4-.2.7.1.5.7.6 1.1.2l4-4c0-.1.1-.1.1-.2.1.1.2.2.3.2l1.6 1.4c.3.3.6.3.9 0 .6-.5 1.1-1 1.7-1.5.1 0 .1-.1.2-.1l1.5 1.5 2.6 2.7c.2.2.4.3.6.2.5-.1.6-.7.3-1.1l-2.7-2.7-1.4-1.4.2-.2 1.9-1.8 2-1.8c.2-.2.3-.4.2-.6 0-.1-.1-.2-.2-.3-.1-.1-.2-.1-.3-.2-.3-.1-.5 0-.6.2-2.1 1.9-4.2 3.8-6.2 5.7-.1 0-.1.1-.2.1L7 5.8c-1.1-1-2.3-2.1-3.4-3.1-.2-.2-.4-.2-.6-.2-.1 0-.2.1-.3.2-.1.1-.2.2-.2.3-.1.3 0 .5.2.6.8.7 1.6 1.5 2.5 2.2l1.6 1.5z"/>
</symbol><symbol id="icon-fb" viewBox="0 0 220 473.4">
    <path d="M220 153.3h-74.9v-49.1c0-18.5 12.2-22.8 20.8-22.8h52.9V.3L146 0C65.2 0 46.8 60.5 46.8 99.2v54.1H0v83.6h46.7v236.5H145V236.9h66.3l8.7-83.6z"/>
</symbol><symbol id="icon-list" viewBox="0 0 24 21">
    <path d="M23.2 16H.8c-.5 0-.8.4-.8.8v3.4c0 .4.3.8.8.8h22.5c.4 0 .8-.3.8-.8v-3.4c-.1-.4-.4-.8-.9-.8zm0-8H.8c-.5 0-.8.4-.8.8v3.4c0 .4.3.8.8.8h22.5c.4 0 .8-.3.8-.8V8.8c-.1-.4-.4-.8-.9-.8zm0-8H.8C.3 0 0 .4 0 .8v3.4c0 .4.3.8.8.8h22.5c.4 0 .7-.4.7-.8V.8c0-.4-.3-.8-.8-.8z"/>
</symbol><symbol id="icon-ok" viewBox="0 0 18 30">
    <path d="M16 15c-1 0-3 2-7 2s-6-2-7-2c-1.1 0-2 .9-2 2 0 1 .6 1.5 1 1.7 1.2.7 5 2.3 5 2.3l-4.3 5.4s-.8.9-.8 1.6c0 1.1.9 2 2 2 1 0 1.5-.7 1.5-.7L9 24l4.5 5.3s.5.7 1.5.7c1.1 0 2-.9 2-2 0-.6-.8-1.6-.8-1.6L12 21s3.8-1.6 5-2.3c.4-.3 1-.7 1-1.7 0-1.1-.9-2-2-2z"/>
    <path d="M9 0C5.1 0 2 3.1 2 7s3.1 7 7 7 7-3.1 7-7-3.1-7-7-7zm0 10.5c-1.9 0-3.5-1.6-3.5-3.5S7.1 3.5 9 3.5s3.5 1.6 3.5 3.5-1.6 3.5-3.5 3.5z"/>
</symbol><symbol id="icon-play" viewBox="0 0 300 300">
    <path d="M150 0C67.2 0 0 67.2 0 150s67.2 150 150 150 150-67.2 150-150S232.8 0 150 0zm55.8 158.3l-86.6 50c-1.3.8-2.8 1.1-4.3 1.1s-2.9-.4-4.3-1.1c-2.6-1.5-4.3-4.3-4.3-7.4V101c0-3.1 1.6-5.9 4.3-7.4 2.6-1.5 5.9-1.5 8.6 0l86.6 50c2.6 1.5 4.3 4.4 4.3 7.4 0 2.9-1.6 5.7-4.3 7.3z"/>
</symbol><symbol id="icon-rubric" viewBox="0 0 35 35">
    <title>
        /rubric
    </title>
    <desc>
        Created using Figma
    </desc>
    <use xlink:href="#a" transform="translate(1.75 29.2)"/>
    <use xlink:href="#b" transform="translate(28.58 29.2)"/>
    <use xlink:href="#c" transform="translate(0 22.2)"/>
    <use xlink:href="#d" transform="translate(4.08 24.5)"/>
    <use xlink:href="#e" transform="translate(8.75 24.5)"/>
    <use xlink:href="#e" transform="translate(13.42 24.5)"/>
    <use xlink:href="#e" transform="translate(18.08 24.5)"/>
    <use xlink:href="#e" transform="translate(22.75 24.5)"/>
    <use xlink:href="#e" transform="translate(27.42 24.5)"/>
    <use xlink:href="#f" transform="translate(1.17 18.7)"/>
    <use xlink:href="#g" transform="translate(0 33.8)"/>
    <use xlink:href="#h" transform="translate(28)"/>
    <use xlink:href="#i" transform="translate(9.92)"/>
    <use xlink:href="#j" transform="translate(10.5 14)"/>
    <use xlink:href="#k" transform="translate(11.08 3.5)"/>
    <use xlink:href="#l" transform="translate(12.25 5.8)"/>
    <use xlink:href="#m" transform="translate(13.42 8.8)"/>
    <use xlink:href="#n" transform="translate(7 14)"/>
    <use xlink:href="#o" transform="translate(7 12.2)"/>
    <use xlink:href="#p" transform="translate(24.5 3.5)"/>
    
</symbol><symbol id="icon-search" viewBox="0 0 384 384">
    <path d="M280.5 234c15-23.6 23.8-51.6 23.8-81.7C304.3 68.2 236.2 0 152.2 0 68.1 0 0 68.2 0 152.3s68.1 152.3 152.1 152.3c30.5 0 58.9-9 82.7-24.4l6.9-4.8L350.3 384l33.7-34.3-108.5-108.6 5-7.1zM237.4 67.2c22.7 22.7 35.2 52.9 35.2 85s-12.5 62.3-35.2 85-52.9 35.2-85 35.2-62.3-12.5-85-35.2-35.2-52.9-35.2-85 12.5-62.3 35.2-85 52.9-35.2 85-35.2 62.3 12.5 85 35.2z"/>
</symbol><symbol id="icon-share" viewBox="0 0 20 13">
    <title>
        icon-share-1440
    </title>
    <path d="M12.381 0L20 6.019l-7.619 6.018V9.148C11.976 9.128 4.911 8.658 0 13 1.965 6.879 8.137 3.975 12.381 2.889V0z" fill-rule="nonzero"/>
</symbol><symbol id="icon-tile" viewBox="0 0 20 20">
    <path d="M6 0H2C.9 0 0 .9 0 2v4c0 1.1.9 2 2 2h4c1.1 0 2-.9 2-2V2c0-1.1-.9-2-2-2z"/>
    <path d="M18 0h-4c-1.1 0-2 .9-2 2v4c0 1.1.9 2 2 2h4c1.1 0 2-.9 2-2V2c0-1.1-.9-2-2-2z"/>
    <path d="M6 12H2c-1.1 0-2 .9-2 2v4c0 1.1.9 2 2 2h4c1.1 0 2-.9 2-2v-4c0-1.1-.9-2-2-2z"/>
    <path d="M18 12h-4c-1.1 0-2 .9-2 2v4c0 1.1.9 2 2 2h4c1.1 0 2-.9 2-2v-4c0-1.1-.9-2-2-2z"/>
</symbol><symbol id="icon-tw" viewBox="0 0 32 26">
    <path d="M32 3.1c-1.2.5-2.4.9-3.8 1 1.4-.8 2.4-2.1 2.9-3.6-1.3.8-2.7 1.3-4.2 1.6C25.7.8 24 0 22.1 0c-3.6 0-6.6 2.9-6.6 6.6 0 .5.1 1 .2 1.5-5.4-.3-10.2-2.9-13.5-6.9-.6 1-.9 2.1-.9 3.3 0 2.3 1.2 4.3 2.9 5.5-1.1 0-2.1-.3-3-.8v.1c0 3.2 2.3 5.8 5.3 6.4-.6.1-1.1.2-1.7.2-.4 0-.8 0-1.2-.1.8 2.6 3.3 4.5 6.1 4.6-2.2 1.8-5.1 2.8-8.1 2.8-.5 0-1.1 0-1.6-.1C2.9 24.9 6.4 26 10.1 26c12.1 0 18.7-10 18.7-18.7v-.9c1.2-.8 2.3-2 3.2-3.3z"/>
</symbol><symbol id="icon-vk" viewBox="0 0 24 14">
    <title/>
    <path d="M20 8c.2-.4 1.1-1.7 1.7-2.7 2-2.8 2.3-3.4 2.3-3.8 0-.3-.2-.5-.5-.5H19c-.2 0-.4.2-.5.4-.3 1.4-3.5 5.3-4 5.6-.2 0-.5-.5-.5-1.5V1.3c.1-.3 0-.7-.2-.9-.4-.4-.9-.4-2.3-.4C8.9 0 8 .8 8 1.5c0 .3.2.5.4.5.1 0 .6.4.6 2.5 0 .8 0 1.7-.1 2.5C7.6 6.8 5.8 3.6 5 1.3c-.1-.2-.3-.3-.5-.3h-4c-.3 0-.5.2-.5.5v.1C.6 4.6 6.9 14 11 14h2c1.1 0 1.1-1.1 1.2-1.9s.1-1.1.3-1.1c.6 0 1.9 1.1 2.7 1.8S18.6 14 19 14h2.5c1.3 0 2.5 0 2.5-1 0-.4-.3-.8-2.2-3-.7-.7-1.5-1.6-1.8-2z"/>
</symbol><symbol id="icon-ytb" viewBox="0 0 508.2 357.1">
    <path d="M257.3 357.1c-57.1-1.8-111.4-3.2-165.7-5.3-11.7-.5-23.6-2.3-35-5-21.4-5-36.2-17.9-43.8-39-6.1-17-8.3-34.5-9.9-52.3-3.5-41.8-3.5-83.6-1.8-125.4 1-23.6 1.6-47.4 7.9-70.3 3.8-13.7 8.4-27.1 19.5-37C40.2 12.3 53.9 6 69.5 5.3 112.3 3.2 155 .6 197.8.2c57.6-.6 115.3.2 172.9 1.3 24.9.5 50 1.8 74.7 5 22.6 3 39.5 15.6 48.5 37.6 6.9 16.9 9.5 34.6 11 52.6 3.9 45.1 4 90.2 1.8 135.3-1.1 22.9-2.2 45.9-8.7 68.2-7.4 25.6-23.1 42.5-49.3 48.3-10.2 2.2-20.8 3-31.2 3.4-54.4 1.9-108.7 3.6-160.2 5.2zM202 243.4c45.6-23.6 90.7-47 136.7-70.9-45.9-24-91-47.5-136.7-71.4v142.3z"/>
</symbol></svg>