<svg width="1076" height="160" viewBox="0 0 1076 160" xmlns="http://www.w3.org/2000/svg" xmlns:xlink="http://www.w3.org/1999/xlink">
    <title>
        logo
    </title>
    <desc>
        Created using Figma
    </desc>
    <g transform="matrix(4 0 0 4 240 88)" fill="#EF0027">
        <use xlink:href="#a"/>
        <use xlink:href="#b"/>
        <use xlink:href="#c"/>
        <use xlink:href="#d"/>
        <use xlink:href="#e"/>
    </g>
    <g transform="matrix(4 0 0 4 240 0)">
        <use xlink:href="#f"/>
        <use xlink:href="#g"/>
        <use xlink:href="#h"/>
        <use xlink:href="#i"/>
        <use xlink:href="#j"/>
        <use xlink:href="#k"/>
        <use xlink:href="#l"/>
        <use xlink:href="#m"/>
        <use xlink:href="#n"/>
        <use xlink:href="#o"/>
    </g>
    <use xlink:href="#p" transform="scale(4)"/>
    <use xlink:href="#q" transform="matrix(4 0 0 4 40 40)" fill="#EF0027"/>
    <defs>
        <path id="a" d="M15.335 18h3.781V0h-5.288L9.545 11.226 5.262 0H0v18h3.754V5.046L8.725 18h1.64l4.97-12.954V18z"/>
        <path id="b" d="M23.94 18h12.48v-3.32h-8.725v-4.182h8.54V7.205h-8.54V3.292h8.725V0H23.94v18z"/>
        <path id="c" d="M40.677 18h6.954c5.526 0 9.36-3.562 9.36-8.987C56.99 3.59 53.156 0 47.63 0h-6.954v18zm3.755-3.373V3.373h3.199c3.622 0 5.526 2.456 5.526 5.64 0 3.05-2.036 5.614-5.526 5.614h-3.2z"/>
        <path id="d" d="M60.977 18h3.754V0h-3.754v18z"/>
        <path id="e" d="M81.902 18H86L79.205 0h-4.706l-6.822 18h4.125l1.11-3.103h7.88L81.901 18zm-5.05-14.68l2.908 8.257h-5.843l2.935-8.258z"/>
        <path id="f" fill-rule="evenodd" d="M181.224 0c-5.765 0-9.957 3.614-9.957 9.397 0 5.68 4.192 9.5 9.957 9.603 5.765 0 9.958-3.924 9.958-9.603 0-5.783-4.193-9.397-9.958-9.397zm0 3.924c3.145 0 5.241 2.272 5.241 5.473 0 3.2-2.201 5.576-5.241 5.576-3.144 0-5.241-2.272-5.241-5.576 0-3.098 2.097-5.473 5.241-5.473z"/>
        <path id="g" d="M4.297.413H0v18.07h4.297V10.12h.105l6.708 8.364h5.765l-8.28-9.707 7.86-8.364h-5.554L4.402 7.745h-.105V.413z"/>
        <path id="h" fill-rule="evenodd" d="M29.139.413H24.84l-7.86 17.967h4.82l1.363-3.51h7.128l1.467 3.51h4.926L29.138.413zm-2.306 4.853l2.306 6.196h-4.612l2.306-6.196z"/>
        <path id="i" fill-rule="evenodd" d="M65.09.413h4.297l7.547 17.967h-4.927l-1.467-3.51h-7.127l-1.363 3.51H57.23L65.089.413zm4.402 11.049l-2.306-6.196-2.306 6.196h4.612z"/>
        <path id="j" d="M84.376.413h-4.403v18.07h24.736V.414h-4.402v14.353h-5.764V.413H90.14v14.353h-5.764V.413z"/>
        <path id="k" d="M110.37.413h4.402v6.815h7.127V.413h4.507v18.07h-4.507v-7.537h-7.127v7.538h-4.402V.413z"/>
        <path id="l" d="M136.364.413h-4.402v18.07h4.716l7.023-11.565h.104v11.566h4.298V.413h-4.612l-7.023 11.875h-.104V.413z"/>
        <path id="m" d="M153.763.413h4.402v7.332l6.603-7.332h5.451l-7.861 8.364 8.385 9.707h-5.765l-6.813-8.364v8.364h-4.402V.413z"/>
        <path id="n" fill-rule="evenodd" d="M194.85.413h7.232c2.83 0 6.184 1.033 6.184 4.647 0 1.962-1.257 3.304-3.039 3.924 2.096.31 3.773 1.858 3.773 4.233 0 3.924-3.459 5.267-7.023 5.267h-7.232V.413h.105zm6.603 7.228c1.677 0 2.621-.723 2.621-1.962 0-1.239-.944-1.755-2.83-1.755h-2.201V7.64h2.41zm.105 7.332c1.363 0 3.145-.413 3.145-2.169 0-1.549-1.258-1.962-3.145-1.962h-2.411v4.13h2.411z"/>
        <path id="o" d="M44.86.413h4.298l7.547 18.07h-4.926L46.852 5.267l-4.926 13.218h-4.822L44.861.413z"/>
        <path id="p" d="M40 0H0v40h40L20 20 40 0z"/>
        <path id="q" d="M20 0H0v20h20L10 10 20 0z"/>
    </defs>
</svg>
